<svg xmlns="http://www.w3.org/2000/svg" viewBox="0 0 167.7 186.15"><defs><style>.cls-1{fill:#f6dfbf;}.cls-2{fill:#ae1f5c;}.cls-3{fill:#683c1c;}.cls-4{fill:#231815;}.cls-5{fill:none;stroke:#231815;stroke-miterlimit:10;}.cls-6{fill:#d279ae;}</style></defs><g id="パーツ"><path class="cls-1" d="M91.2,138.81H88.54q0-7.06-.07-14.12H75.06q0,7.06-.08,14.12H72.33c-31.18,0-58.06,26.54-60,59.28h0c-2,32.74,24.51,59.28,59.16,59.28H92.08c34.65,0,61.13-26.54,59.15-59.28h0C149.25,165.35,122.37,138.81,91.2,138.81Z"/><path class="cls-2" d="M114.51,144.18a69.56,69.56,0,0,1-65.49,0c-19.6,9.35-34.64,30-36.19,53.91h0c-2.32,32.74,23.92,59.28,58.62,59.28H92.08c34.69,0,60.94-26.54,58.62-59.28h0C149.15,174.15,134.11,153.53,114.51,144.18Z"/><path class="cls-3" d="M126.88,118.61q-44.56.7-89.13,0Q35.34,98,32.93,77.34c-3.77-27.2,18.34-48.78,49.38-48.79h0c31,0,53.15,21.59,49.38,48.79Q129.29,98,126.88,118.61Z"/><circle class="cls-1" cx="118.57" cy="93.23" r="6.08"/><circle class="cls-1" cx="42.57" cy="93.23" r="6.08"/><path class="cls-1" d="M80.81,128h0C63,128,45.59,111.1,41.89,90h0C38.18,68.89,55.61,51.4,80.81,51.4h0c25.2,0,42.62,17.49,38.92,38.59h0C116,111.1,98.6,128,80.81,128Z"/><path class="cls-3" d="M128.81,71.56c-3.34-16.57-17.69-29.71-36-33.08a26.83,26.83,0,0,0-2.09,3.58c-.2-1.37-.47-2.7-.78-4a52.68,52.68,0,0,0-6.45-.41C58,37.63,37.4,56.14,37.4,79a37.2,37.2,0,0,0,.78,7.5,31.77,31.77,0,0,0,17.07,5C70.73,91.5,83.92,80.07,89,64c3.12,10.47,11.63,18,21.64,18C118.05,82,124.62,77.93,128.81,71.56Z"/><circle class="cls-4" cx="69.43" cy="95.13" r="3.17"/><circle class="cls-4" cx="92.98" cy="95.13" r="3.17"/><path class="cls-4" d="M61,86.57a10.54,10.54,0,0,1,4.09-1.71,14.46,14.46,0,0,1,2.18-.29c.73,0,1.46,0,2.2.06s1.46.23,2.17.42a13.3,13.3,0,0,1,2.1.79,8.56,8.56,0,0,1,3.48,2.85l-.1.17a20.59,20.59,0,0,0-7.87-2.24,32.33,32.33,0,0,0-8.22.15Z"/><path class="cls-4" d="M102.21,86.57a10.58,10.58,0,0,0-4.1-1.71,14.33,14.33,0,0,0-2.17-.29c-.74,0-1.47,0-2.2.06s-1.46.23-2.18.42a13.19,13.19,0,0,0-2.09.79A8.49,8.49,0,0,0,86,88.69l.09.17A20.59,20.59,0,0,1,94,86.62a32.4,32.4,0,0,1,8.23.15Z"/><polyline class="cls-5" points="81.12 99.31 79.84 106.09 83.69 106.09"/><path class="cls-5" d="M75.7,110.72a9.67,9.67,0,0,0,14.1,0"/><circle class="cls-6" cx="41.57" cy="99.31" r="3.35"/><circle class="cls-6" cx="120.05" cy="99.31" r="3.35"/></g></svg>