<?xml version="1.0" encoding="utf-8"?>
<!-- Generator: Adobe Illustrator 25.1.0, SVG Export Plug-In . SVG Version: 6.00 Build 0)  -->
<svg version="1.1" id="レイヤー_1" xmlns="http://www.w3.org/2000/svg" xmlns:xlink="http://www.w3.org/1999/xlink" x="0px"
	 y="0px" viewBox="0 0 48.9 43.2" style="enable-background:new 0 0 48.9 43.2;" xml:space="preserve">
<style type="text/css">
	.st0{fill:#EF4B53;}
	.st1{fill:#F47682;}
</style>
<path class="st0" d="M43.6,24.5l1.4-1.4c5.3-5.3,5.3-13.9,0-19.2c-5.3-5.3-13.9-5.3-19.2,0l-1.4,1.4L23.1,4
	C17.8-1.3,9.2-1.2,3.9,4.1c-5.2,5.3-5.2,13.8,0,19.1l1.4,1.4L23.7,43c0.4,0.4,1,0.4,1.4,0c0,0,0,0,0,0L43.6,24.5"/>
<path class="st1" d="M14.3,2.4c0,0-11.3-0.9-12.5,11.9c1.6-5.7,7-9.4,12.8-9c0,0,2.6,0.3,2.6-1.4C17.2,2.3,14.3,2.4,14.3,2.4z"/>
</svg>
